<svg width="106" height="54" viewBox="0 0 106 54" fill="none" xmlns="http://www.w3.org/2000/svg">
<path d="M18.8077 17.602C18.4094 18.6158 18.1288 19.6658 18.0021 20.7521C17.8844 21.7116 17.8753 22.6983 18.0202 23.6578C17.1602 19.8197 17.5676 16.0088 18.6991 12.2069C19.7582 8.64037 21.7315 5.3273 24.4743 2.79271C25.6421 1.70646 23.5601 2.4125 25.1261 2.10473C26.4115 1.85127 25.2981 0.448197 26.5835 0.728813C35.8981 2.10473 44.4066 2.79271 57.2611 11.0844C64.9373 16.0359 72.1971 22.4629 80.0272 27.1519C82.3083 28.5188 84.7433 29.8404 87.3956 29.9852C90.0479 30.1301 92.9717 28.736 93.7502 26.1924C94.1847 27.9214 93.5239 29.7951 92.3652 31.1439C91.2065 32.4927 89.5953 33.3888 87.9478 34.0677C86.1102 34.8191 84.1097 35.326 82.1454 35.0544C80.1086 34.7647 78.2801 33.6694 76.5783 32.5198C68.0693 26.7898 60.4927 19.7201 51.8117 14.2436C47.6477 11.6185 43.1126 9.4641 38.2516 8.71277C33.3907 7.96145 28.5206 8.28733 24.4743 11.0844C22.157 12.6686 19.8397 14.9768 18.8077 17.602Z" fill="#042C2C"/>
<path d="M86.7524 36.729C86.164 36.557 85.5756 36.376 84.9873 36.1949C84.3446 35.9958 83.7109 35.7785 83.0682 35.5613C82.7514 35.4526 82.4346 35.344 82.1177 35.2263C81.819 35.1177 81.4117 35.0453 81.1582 34.8552C81.647 34.7466 82.2897 34.8643 82.7966 34.8461C83.3488 34.828 83.91 34.7828 84.4622 34.7104C85.5666 34.5655 86.6528 34.3121 87.6848 33.9228C89.7668 33.1353 91.6677 31.7684 92.8716 29.8946C93.451 28.9894 93.8764 27.9303 93.8221 26.8531C93.7316 24.9613 91.9664 23.3047 90.0745 23.3319C94.157 23.6668 98.3482 24.0379 102.005 25.8846C102.956 26.3643 103.879 26.9527 104.495 27.8217C105.137 28.7179 105.409 29.8494 105.364 30.9537C105.273 33.2077 103.897 35.2988 102.023 36.566C100.159 37.8333 97.8503 38.3493 95.5873 38.3493C93.3242 38.3493 91.0974 37.8786 88.9068 37.3174C88.1917 37.1363 87.4766 36.9372 86.7524 36.729Z" fill="url(#paint0_linear_67_3260)"/>
<path d="M0.197499 25.3595C-0.0197516 23.2594 -0.0650121 21.1412 0.097926 19.0411C0.143187 18.4437 0.206551 17.8372 0.278968 17.2397C3.60109 25.9298 12.5265 31.5783 21.7053 33.0719C30.8842 34.5655 40.2803 32.4835 49.088 29.4782C57.8957 26.4729 66.3775 22.5262 75.3481 20.1002C80.7523 18.6338 86.437 17.7376 91.9316 18.7967C97.4263 19.8558 102.423 23.1236 104.74 28.2199C99.3 24.6625 92.873 23.1417 86.4279 23.9383C78.9147 24.8707 72.1075 28.8264 66.0607 33.3796C60.0139 37.9329 54.474 43.165 48.1194 47.2746C41.964 51.2576 34.849 54.1814 27.5077 53.9913C23.38 53.8827 19.2975 52.7602 15.6766 50.7868C13.8571 49.8002 12.1463 48.5962 10.6074 47.2113C9.11383 45.8625 7.84654 44.2422 6.67881 42.5947C4.27095 39.2092 2.46958 35.3983 1.34712 31.3882C0.794939 29.4148 0.405698 27.3962 0.197499 25.3595Z" fill="url(#paint1_linear_67_3260)"/>
<path d="M21.1638 8.43199C23.0738 5.45385 25.7614 2.76073 28.8662 1.05894C23.9328 -0.226459 18.5568 -0.511486 13.7411 1.16315C9.94822 2.47571 6.6804 5.0465 4.12771 8.14232C2.19961 10.4868 0.633592 13.2296 0.271507 16.244C-0.135838 19.7019 1.1043 23.2141 3.16818 26.0112C4.46264 27.7673 6.06486 29.279 7.80287 30.6006C8.67187 31.2614 9.58613 31.8769 10.5094 32.4563C11.4509 33.0447 12.5371 33.3343 13.6053 33.624C18.068 34.837 22.8294 34.9456 27.3464 33.9227C27.7628 33.8322 28.3421 33.5516 28.7585 33.5697C25.2282 33.4249 21.9604 31.2433 20.0594 28.2652C18.1585 25.287 17.5339 21.6209 17.8236 18.1087C18.1223 14.6689 19.3081 11.3377 21.1638 8.43199Z" fill="url(#paint2_linear_67_3260)"/>
<defs>
<linearGradient id="paint0_linear_67_3260" x1="71.8339" y1="35.1348" x2="104.889" y2="28.5961" gradientUnits="userSpaceOnUse">
<stop stop-color="#CADDE5"/>
<stop offset="1" stop-color="#2A426E"/>
</linearGradient>
<linearGradient id="paint1_linear_67_3260" x1="52.5124" y1="17.2405" x2="52.5124" y2="54.0063" gradientUnits="userSpaceOnUse">
<stop stop-color="#7CBFCB"/>
<stop offset="0.425" stop-color="#466D9A"/>
<stop offset="1" stop-color="#22598F"/>
</linearGradient>
<linearGradient id="paint2_linear_67_3260" x1="14.5067" y1="0.0764699" x2="14.5067" y2="34.6172" gradientUnits="userSpaceOnUse">
<stop stop-color="#7CBFCB"/>
<stop offset="0.425" stop-color="#466D9A"/>
<stop offset="1" stop-color="#22598F"/>
</linearGradient>
</defs>
</svg>
