<svg width="164" height="81" viewBox="0 0 164 81" fill="none" xmlns="http://www.w3.org/2000/svg">
<path d="M51.5854 15.6464C51.2314 16.5476 50.982 17.481 50.8693 18.4465C50.7647 19.2994 50.7567 20.1765 50.8854 21.0294C50.121 17.6177 50.4831 14.2302 51.4889 10.8508C52.4303 7.68054 54.1844 4.73559 56.6224 2.48262C57.6604 1.51707 55.8097 2.14466 57.2018 1.87109C58.3443 1.64579 57.3546 0.398615 58.4972 0.64805C66.7769 1.87109 74.34 2.48262 85.7662 9.85305C92.5895 14.2544 99.0426 19.9673 106.003 24.1353C108.03 25.3503 110.195 26.525 112.552 26.6538C114.91 26.7825 117.509 25.5434 118.201 23.2824C118.587 24.8192 118 26.4848 116.97 27.6837C115.94 28.8826 114.508 29.6792 113.043 30.2826C111.41 30.9505 109.632 31.4011 107.886 31.1597C106.075 30.9022 104.45 29.9286 102.937 28.9067C95.3735 23.8134 88.6387 17.5292 80.9223 12.6612C77.221 10.3278 73.1898 8.41275 68.8689 7.74491C64.548 7.07706 60.2191 7.36674 56.6224 9.85305C54.5626 11.2612 52.5027 13.313 51.5854 15.6464Z" fill="#042C2C"/>
<path d="M111.981 32.6471C111.458 32.4942 110.935 32.3333 110.412 32.1724C109.841 31.9954 109.278 31.8023 108.707 31.6091C108.425 31.5126 108.143 31.416 107.862 31.3114C107.596 31.2149 107.234 31.1505 107.009 30.9815C107.443 30.885 108.015 30.9896 108.465 30.9735C108.956 30.9574 109.455 30.9172 109.946 30.8528C110.927 30.7241 111.893 30.4988 112.81 30.1528C114.661 29.4527 116.351 28.2377 117.421 26.5722C117.936 25.7675 118.314 24.8261 118.266 23.8686C118.185 22.1869 116.616 20.7144 114.934 20.7386C118.563 21.0363 122.289 21.3662 125.539 23.0076C126.384 23.4341 127.205 23.9571 127.752 24.7295C128.324 25.5261 128.565 26.5319 128.525 27.5136C128.444 29.5171 127.221 31.3758 125.556 32.5023C123.898 33.6288 121.846 34.0874 119.835 34.0874C117.823 34.0874 115.844 33.669 113.896 33.1701C113.261 33.0092 112.625 32.8322 111.981 32.6471Z" fill="url(#paint0_linear_42_6819)"/>
<path d="M35.0432 22.5418C34.8501 20.675 34.8099 18.7922 34.9547 16.9254C34.995 16.3944 35.0513 15.8553 35.1156 15.3242C38.0686 23.0487 46.0023 28.0696 54.1613 29.3972C62.3203 30.7249 70.6724 28.8742 78.5014 26.2028C86.3305 23.5315 93.8699 20.0233 101.844 17.8669C106.647 16.5634 111.701 15.7668 116.585 16.7082C121.469 17.6496 125.91 20.5543 127.97 25.0844C123.134 21.9222 117.421 20.5704 111.693 21.2785C105.014 22.1073 98.9632 25.6235 93.5883 29.6708C88.2133 33.7181 83.289 38.3689 77.6405 42.0219C72.169 45.5623 65.8446 48.1612 59.319 47.9923C55.6499 47.8957 52.021 46.898 48.8024 45.1439C47.1851 44.2668 45.6644 43.1967 44.2965 41.9656C42.9689 40.7667 41.8424 39.3264 40.8044 37.8619C38.6641 34.8526 37.0629 31.4651 36.0651 27.9006C35.5743 26.1465 35.2283 24.3522 35.0432 22.5418Z" fill="url(#paint1_linear_42_6819)"/>
<path d="M53.68 7.4951C55.3778 4.84787 57.7668 2.45399 60.5267 0.94128C56.1414 -0.201297 51.3627 -0.454654 47.0821 1.03391C43.7106 2.20063 40.8059 4.48578 38.5369 7.23762C36.823 9.32162 35.431 11.7597 35.1091 14.4391C34.747 17.5128 35.8494 20.6347 37.6839 23.1211C38.8346 24.682 40.2588 26.0258 41.8037 27.2005C42.5761 27.7879 43.3888 28.3351 44.2095 28.85C45.0463 29.373 46.0119 29.6305 46.9614 29.888C50.9282 30.9662 55.1606 31.0628 59.1757 30.1535C59.5458 30.0731 60.0608 29.8236 60.4309 29.8397C57.2928 29.711 54.3881 27.7718 52.6984 25.1246C51.0087 22.4773 50.4535 19.2186 50.7109 16.0966C50.9765 13.039 52.0305 10.078 53.68 7.4951Z" fill="url(#paint2_linear_42_6819)"/>
<path d="M117.697 60.0316C118.122 60.4336 118.506 60.9176 118.96 61.279C118.969 61.2861 118.98 61.2897 118.992 61.2889C119.003 61.2882 119.014 61.2833 119.022 61.2751C120.483 59.7846 121.942 58.3238 123.399 56.8926C123.816 56.4836 124.401 55.8708 124.978 55.7264C125.549 55.5835 125.82 55.8614 126.182 56.2806C126.46 56.6007 126.726 56.9832 126.416 57.386C126.154 57.7269 125.916 58.0053 125.704 58.2213C124.047 59.908 122.397 61.6004 120.752 63.2985C120.399 63.6631 120.257 63.7435 120.266 64.2212C120.289 65.5676 120.305 66.9142 120.314 68.261C120.317 68.8236 120.289 69.318 120.229 69.7442C120.15 70.2953 119.534 70.574 119.053 70.6419C118.79 70.6789 118.538 70.6425 118.296 70.5327C117.745 70.2813 117.528 70.037 117.532 69.3703C117.544 67.0986 117.563 65.4866 117.591 64.5343C117.606 64.0042 117.541 63.6724 117.155 63.293C115.372 61.5371 113.611 59.7594 111.873 57.9597C111.61 57.6865 111.265 57.1658 111.368 56.7826C111.572 56.0183 112.452 55.4648 113.191 55.7865C113.339 55.851 113.571 56.0365 113.886 56.3431C115.152 57.5765 116.413 58.8177 117.697 60.0316Z" fill="#FCAD4A"/>
<path d="M59.1644 64.7137C59.1457 64.8753 59.1184 65.0673 59.1207 65.2289C59.1441 66.85 59.134 68.1729 59.0903 69.1976C59.0793 69.4646 58.9984 69.7092 58.8475 69.9314C58.2761 70.7753 57.515 70.7308 56.714 70.2445C56.3526 70.0251 56.3081 69.6543 56.2855 69.2702C56.2121 67.9955 56.2815 66.6434 56.2737 65.4701C56.256 62.8748 56.2633 60.2791 56.2956 57.6833C56.3182 55.866 57.1418 55.8784 58.632 55.8449C61.6453 55.7767 64.6588 55.7567 67.6726 55.7848C69.009 55.7973 69.8742 55.8194 70.2682 55.8511C71.3486 55.9378 71.4384 57.3445 71.0051 58.0689C70.774 58.4553 70.0262 58.4803 69.6046 58.4936C66.5859 58.5865 63.5094 58.5623 60.5446 58.5615C60.2081 58.5607 59.6742 58.5248 59.2355 58.5506C59.2237 58.5513 59.2125 58.5552 59.2029 58.562C59.1934 58.5688 59.186 58.5781 59.1816 58.5888C59.1499 58.6663 59.1332 58.753 59.1316 58.8488C59.1114 59.8469 59.1293 60.8542 59.1855 61.8706C59.1865 61.8872 59.1938 61.9028 59.2059 61.9142C59.2179 61.9255 59.2338 61.9317 59.2503 61.9315C61.3216 61.9169 63.4004 61.9125 65.4868 61.9182C66.7202 61.9213 66.7428 62.9994 66.5898 63.9518C66.5664 64.1017 66.4844 64.1547 66.3603 64.2156C65.7389 64.5209 65.2237 64.5989 64.4688 64.6192C62.9284 64.6608 61.3879 64.6775 59.8475 64.6692C59.6914 64.6684 59.4267 64.6294 59.2074 64.6676C59.1962 64.6696 59.1859 64.6751 59.1782 64.6835C59.1704 64.6918 59.1656 64.7024 59.1644 64.7137Z" fill="#FCAD4A"/>
<path d="M52.3238 69.5183C49.3917 66.6026 46.4222 63.7229 43.4792 60.8181C43.4053 60.7453 43.3358 60.6831 43.2708 60.6316C43.2323 60.6014 43.213 60.6107 43.213 60.6597C43.2135 63.3986 43.2122 66.1142 43.2091 68.8064C43.2083 69.2584 43.1865 70.0413 42.7673 70.3294C42.1745 70.7369 41.5708 70.7163 40.9562 70.2677C40.4051 69.8649 40.5058 69.1038 40.5019 68.5089C40.487 66.2029 40.4574 63.8923 40.5097 61.5863C40.5409 60.1874 40.5459 58.7885 40.5245 57.3896C40.512 56.5816 41.1787 56.0094 41.8922 55.8627C42.2489 55.7893 42.8875 56.3857 43.1404 56.6285C45.8984 59.2795 48.5986 62.0226 51.284 64.7236C51.5963 65.0375 52.0857 65.5847 52.5229 65.9805C52.5297 65.9868 52.5382 65.991 52.5474 65.9926C52.5565 65.9942 52.566 65.9931 52.5745 65.9895C52.5831 65.9858 52.5904 65.9798 52.5957 65.9721C52.6009 65.9644 52.6038 65.9554 52.6041 65.9461C52.6938 62.9672 52.6681 59.9805 52.7243 56.9993C52.7297 56.7315 52.7524 56.5106 52.9803 56.3334C53.4508 55.9675 53.9702 55.8699 54.5385 56.0406C55.2949 56.267 55.3332 56.9946 55.3355 57.6589C55.3527 62.3107 55.2902 65.4809 55.2793 69.3918C55.2785 69.6471 55.2699 69.893 55.0607 70.0741C54.7282 70.3622 53.9382 70.9141 53.5018 70.5675C53.0901 70.2396 52.6975 69.8899 52.3238 69.5183Z" fill="#FCAD4A"/>
<path d="M90.8796 64.9237C90.7788 66.3234 90.8241 67.7559 90.8507 69.1595C90.8606 69.4577 90.7593 69.7314 90.547 69.9807C90.3222 70.243 89.9436 70.6684 89.6516 70.7098C89.1715 70.7777 88.3675 70.0626 88.0498 69.741C86.5018 68.1782 84.9483 66.613 83.3566 65.0955C81.8734 63.681 80.419 62.2373 78.9936 60.7645C78.941 60.7099 78.8713 60.6672 78.7844 60.6365C78.7802 60.6348 78.7756 60.6342 78.7711 60.6348C78.7666 60.6353 78.7623 60.6368 78.7585 60.6394C78.7548 60.6419 78.7517 60.6453 78.7495 60.6493C78.7474 60.6533 78.7462 60.6577 78.7461 60.6622C78.7014 63.2383 78.6863 65.8137 78.7009 68.3882C78.704 68.9229 78.6743 69.4217 78.6002 69.9003C78.526 70.3804 77.4222 70.7559 77.028 70.5732C76.1084 70.147 75.9288 69.709 75.9312 68.7246C75.9437 63.4533 75.9567 60.1127 75.9702 58.7028C75.9811 57.5186 75.7946 56.4905 77.0358 55.9222C77.7813 55.5811 79.2434 57.1463 79.7094 57.6209C82.4948 60.453 85.3108 63.2545 88.1575 66.0252C88.1762 66.0434 88.1853 66.0395 88.1848 66.0135C88.1348 63.3601 88.1544 61.2079 88.1864 57.7364C88.1942 56.9464 88.1504 56.4952 88.8273 56.1197C89.4044 55.7997 89.9272 55.8585 90.3956 56.2961C90.8585 56.7286 90.9217 57.2212 90.9162 57.8964C90.897 60.2384 90.8848 62.5808 90.8796 64.9237Z" fill="#FCAD4A"/>
<path d="M92.2583 70.2341C91.7392 69.765 91.7517 69.0234 91.7532 68.3786C91.7616 64.8386 91.7764 61.2987 91.7977 57.7588C91.8016 57.2139 91.9585 56.5488 92.4402 56.2186C92.9195 55.8907 93.6229 55.8314 94.0639 56.2131C94.5292 56.6152 94.7126 57.5098 94.7072 58.1304C94.6796 61.4528 94.6666 64.7754 94.6681 68.0983C94.6689 69.2536 94.6189 70.224 93.3996 70.7251C93.0725 70.8594 92.5112 70.4621 92.2583 70.2341Z" fill="#FCAD4A"/>
<path d="M104.561 58.7674C104.524 58.7743 104.491 58.7937 104.466 58.8225C104.442 58.8512 104.429 58.8875 104.428 58.9251C104.395 62.2498 104.409 65.5706 104.392 68.893C104.39 69.3104 104.352 69.6128 104.278 69.8001C103.826 70.9352 102.655 70.7884 101.834 70.2006C101.616 70.0444 101.67 69.5683 101.669 69.3302C101.647 66.0976 101.65 62.8681 101.658 59.6355C101.659 59.3737 101.644 59.1119 101.613 58.8501C101.611 58.8318 101.602 58.8149 101.589 58.8026C101.575 58.7902 101.557 58.7833 101.539 58.783C100.299 58.7601 99.0608 58.7427 97.8248 58.7307C97.2044 58.725 96.6554 58.6154 96.1777 58.4021C95.4368 58.0711 95.4407 56.2943 96.2854 56.114C96.6132 56.0443 96.9455 56.0078 97.2823 56.0047C101.071 55.9725 104.86 55.9602 108.648 55.968C109.112 55.9688 109.524 55.8314 109.891 56.2233C110.171 56.522 110.345 56.872 110.413 57.2733C110.461 57.5566 110.111 58.0078 109.926 58.1952C109.552 58.5746 108.85 58.6909 108.343 58.7151C107.228 58.7682 106.07 58.7731 104.868 58.7299C104.776 58.7268 104.644 58.7526 104.561 58.7674Z" fill="#FCAD4A"/>
<path d="M37.0473 70.1955C36.8475 70.1041 36.8732 69.6397 36.8709 69.4546C36.8178 65.5411 36.8373 61.3826 36.9295 56.9793C36.9336 56.7763 36.9537 56.6033 36.9896 56.4602C36.9928 56.4482 36.9985 56.4371 37.0063 56.4277C37.0141 56.4182 37.0239 56.4107 37.0348 56.4055C37.7109 56.0886 38.4002 55.7529 38.9622 56.1612C39.543 56.5835 39.6258 57.1846 39.6226 57.9364C39.6003 63.5804 39.588 67.3141 39.586 69.1377C39.5844 69.7466 38.9333 70.6646 38.269 70.6436C37.9201 70.6318 37.3978 70.3555 37.0473 70.1955Z" fill="#FCAD4A"/>
<path d="M72.5079 70.1384C72.3244 69.9963 72.3455 69.7926 72.3424 69.5701C72.2869 64.9831 72.3471 61.7567 72.3572 57.585C72.3577 57.4185 72.3416 57.2704 72.3088 57.1408C72.3027 57.1154 72.3043 57.0888 72.3135 57.0643L72.5758 56.3547C72.5855 56.3297 72.6016 56.3076 72.6226 56.2907C72.7288 56.2069 72.837 56.1533 72.9474 56.1299C73.7764 55.9535 74.6249 55.8895 74.9598 56.8153C75.0582 57.0865 75.1092 57.343 75.1128 57.585C75.1586 60.2829 75.1662 62.981 75.1355 65.6794C75.123 66.7869 75.1212 67.8946 75.13 69.0026C75.1363 69.7255 74.8316 70.2545 74.2159 70.5896C73.6773 70.8832 72.8779 70.4257 72.5079 70.1384Z" fill="#FCAD4A"/>
<path d="M39.4144 75.1777C39.8947 75.1777 40.2938 75.2997 40.6116 75.5435C40.9293 75.7874 41.1436 76.1181 41.2545 76.5356H40.5839C40.4915 76.2992 40.3437 76.1126 40.1405 75.9759C39.9409 75.8354 39.6952 75.7652 39.4033 75.7652C39.1705 75.7652 38.9617 75.8225 38.777 75.9371C38.5959 76.0516 38.4518 76.216 38.3447 76.4303C38.2412 76.641 38.1895 76.8885 38.1895 77.173C38.1895 77.4539 38.2412 77.7014 38.3447 77.9157C38.4518 78.1264 38.5959 78.2889 38.777 78.4035C38.9617 78.518 39.1705 78.5753 39.4033 78.5753C39.6952 78.5753 39.9409 78.5069 40.1405 78.3702C40.3437 78.2298 40.4915 78.0432 40.5839 77.8104H41.2545C41.1436 78.228 40.9293 78.5587 40.6116 78.8025C40.2938 79.0427 39.8947 79.1628 39.4144 79.1628C39.0449 79.1628 38.7179 79.0797 38.4334 78.9134C38.1488 78.7434 37.929 78.5088 37.7738 78.2095C37.6186 77.9065 37.541 77.561 37.541 77.173C37.541 76.7851 37.6186 76.4414 37.7738 76.1421C37.929 75.8391 38.1488 75.6027 38.4334 75.4327C38.7179 75.2627 39.0449 75.1777 39.4144 75.1777Z" fill="#2A4B7A"/>
<path d="M45.2714 76.0368C45.5485 76.0368 45.785 76.1052 45.9808 76.2419C46.1767 76.3786 46.3152 76.5597 46.3965 76.7851V76.0756H47.0284V79.1295H46.3965V78.4201C46.3152 78.6455 46.1767 78.8266 45.9808 78.9633C45.785 79.1 45.5485 79.1683 45.2714 79.1683C45.0053 79.1683 44.767 79.1055 44.5564 78.9799C44.3495 78.8543 44.1869 78.6732 44.0687 78.4367C43.9504 78.2003 43.8913 77.9213 43.8913 77.5998C43.8913 77.282 43.9504 77.0049 44.0687 76.7684C44.1869 76.532 44.3495 76.3509 44.5564 76.2253C44.767 76.0996 45.0053 76.0368 45.2714 76.0368ZM45.4654 76.5911C45.1846 76.5911 44.9592 76.6816 44.7892 76.8627C44.6229 77.04 44.5398 77.2857 44.5398 77.5998C44.5398 77.9139 44.6229 78.1615 44.7892 78.3425C44.9592 78.5199 45.1846 78.6085 45.4654 78.6085C45.6427 78.6085 45.8016 78.5679 45.942 78.4866C46.0824 78.4016 46.1933 78.2834 46.2746 78.1319C46.3559 77.9804 46.3965 77.803 46.3965 77.5998C46.3965 77.4003 46.3559 77.2248 46.2746 77.0733C46.1933 76.9181 46.0824 76.7998 45.942 76.7186C45.8016 76.6336 45.6427 76.5911 45.4654 76.5911Z" fill="#2A4B7A"/>
<path d="M50.58 76.6742C50.6835 76.4747 50.8313 76.3176 51.0234 76.2031C51.2156 76.0849 51.4373 76.0257 51.6885 76.0257V76.713H51.5001C51.223 76.713 50.9994 76.7814 50.8294 76.9181C50.6632 77.0511 50.58 77.2728 50.58 77.5832V79.1295H49.9482V76.0756H50.58V76.6742Z" fill="#2A4B7A"/>
<path d="M57.1613 77.4557C57.1613 77.5592 57.1539 77.6497 57.1391 77.7273H54.7891C54.8002 78.0414 54.887 78.2742 55.0496 78.4256C55.2122 78.5771 55.4135 78.6529 55.6537 78.6529C55.8643 78.6529 56.0417 78.5993 56.1858 78.4922C56.3336 78.385 56.4241 78.2427 56.4574 78.0654H57.1336C57.0929 78.2797 57.0079 78.47 56.8786 78.6363C56.7493 78.8025 56.5812 78.9337 56.3742 79.0298C56.1673 79.1222 55.9364 79.1683 55.6814 79.1683C55.3858 79.1683 55.1235 79.1055 54.8944 78.9799C54.669 78.8543 54.4916 78.6732 54.3623 78.4367C54.233 78.2003 54.1683 77.9213 54.1683 77.5998C54.1683 77.282 54.233 77.0049 54.3623 76.7684C54.4916 76.532 54.669 76.3509 54.8944 76.2253C55.1235 76.0996 55.3858 76.0368 55.6814 76.0368C55.9807 76.0368 56.2412 76.0996 56.4629 76.2253C56.6883 76.3472 56.8601 76.5172 56.9784 76.7352C57.1003 76.9495 57.1613 77.1897 57.1613 77.4557ZM56.5239 77.4391C56.5313 77.2395 56.4962 77.0733 56.4186 76.9403C56.3447 76.8035 56.2412 76.7038 56.1082 76.641C55.9789 76.5744 55.8366 76.5412 55.6814 76.5412C55.4339 76.5412 55.2269 76.6169 55.0607 76.7684C54.8944 76.9199 54.8039 77.1435 54.7891 77.4391H56.5239Z" fill="#2A4B7A"/>
<path d="M63.7538 76.0756L64.6683 78.3203L65.5163 76.0756H66.2202L64.3745 80.5817H63.6706L64.3302 79.0575L63.0443 76.0756H63.7538Z" fill="#2A4B7A"/>
<path d="M70.194 76.0368C70.4896 76.0368 70.7556 76.0996 70.9921 76.2253C71.2286 76.3509 71.4133 76.532 71.5463 76.7684C71.6793 77.0049 71.7459 77.282 71.7459 77.5998C71.7459 77.9213 71.6793 78.2003 71.5463 78.4367C71.4133 78.6732 71.2286 78.8543 70.9921 78.9799C70.7556 79.1055 70.4896 79.1683 70.194 79.1683C69.8984 79.1683 69.6323 79.1055 69.3958 78.9799C69.163 78.8543 68.9783 78.6732 68.8416 78.4367C68.7086 78.1966 68.6421 77.9176 68.6421 77.5998C68.6421 77.282 68.7086 77.0049 68.8416 76.7684C68.9783 76.532 69.163 76.3509 69.3958 76.2253C69.6323 76.0996 69.8984 76.0368 70.194 76.0368ZM70.194 76.5855C70.0314 76.5855 69.8817 76.6225 69.745 76.6964C69.6083 76.7703 69.4974 76.8848 69.4125 77.04C69.3312 77.1915 69.2905 77.3781 69.2905 77.5998C69.2905 77.8252 69.3312 78.0137 69.4125 78.1651C69.4974 78.3166 69.6083 78.4293 69.745 78.5032C69.8817 78.5771 70.0314 78.6141 70.194 78.6141C70.3565 78.6141 70.5062 78.5771 70.6429 78.5032C70.7796 78.4293 70.8886 78.3166 70.9699 78.1651C71.0549 78.0137 71.0974 77.8252 71.0974 77.5998C71.0974 77.3781 71.0549 77.1915 70.9699 77.04C70.8886 76.8848 70.7796 76.7703 70.6429 76.6964C70.5062 76.6225 70.3565 76.5855 70.194 76.5855Z" fill="#2A4B7A"/>
<path d="M77.3305 76.0756V79.1295H76.6931V78.4644C76.6155 78.6898 76.4806 78.8654 76.2885 78.991C76.0964 79.1129 75.8728 79.1739 75.6179 79.1739C75.2631 79.1739 74.9786 79.0593 74.7643 78.8302C74.55 78.6012 74.4428 78.2742 74.4428 77.8492V76.0756H75.0747V77.7827C75.0747 78.0598 75.1449 78.2742 75.2853 78.4256C75.4257 78.5734 75.6179 78.6473 75.8617 78.6473C76.113 78.6473 76.3144 78.5661 76.4659 78.4035C76.6174 78.2409 76.6931 78.0044 76.6931 77.694V76.0756H77.3305Z" fill="#2A4B7A"/>
<path d="M85.0673 76.0368C85.4627 76.0368 85.7897 76.1421 86.0483 76.3527C86.307 76.5597 86.4677 76.8423 86.5305 77.2008H85.8599C85.8229 77.0086 85.7324 76.859 85.5883 76.7518C85.4479 76.641 85.2705 76.5855 85.0562 76.5855C84.8124 76.5855 84.6091 76.6724 84.4466 76.846C84.284 77.016 84.2027 77.2673 84.2027 77.5998C84.2027 77.9324 84.284 78.1855 84.4466 78.3591C84.6091 78.5328 84.8124 78.6196 85.0562 78.6196C85.2705 78.6196 85.4479 78.5642 85.5883 78.4534C85.7324 78.3425 85.8229 78.191 85.8599 77.9989H86.5305C86.4677 78.3573 86.307 78.6418 86.0483 78.8524C85.7897 79.063 85.4627 79.1683 85.0673 79.1683C84.7717 79.1683 84.5094 79.1055 84.2803 78.9799C84.0549 78.8543 83.8775 78.6732 83.7482 78.4367C83.6189 78.2003 83.5542 77.9213 83.5542 77.5998C83.5542 77.282 83.6189 77.0049 83.7482 76.7684C83.8775 76.532 84.0549 76.3509 84.2803 76.2253C84.5094 76.0996 84.7717 76.0368 85.0673 76.0368Z" fill="#2A4B7A"/>
<path d="M90.5275 76.0368C90.8046 76.0368 91.0411 76.1052 91.2369 76.2419C91.4327 76.3786 91.5713 76.5597 91.6526 76.7851V76.0756H92.2844V79.1295H91.6526V78.4201C91.5713 78.6455 91.4327 78.8266 91.2369 78.9633C91.0411 79.1 90.8046 79.1683 90.5275 79.1683C90.2614 79.1683 90.0231 79.1055 89.8125 78.9799C89.6056 78.8543 89.443 78.6732 89.3247 78.4367C89.2065 78.2003 89.1474 77.9213 89.1474 77.5998C89.1474 77.282 89.2065 77.0049 89.3247 76.7684C89.443 76.532 89.6056 76.3509 89.8125 76.2253C90.0231 76.0996 90.2614 76.0368 90.5275 76.0368ZM90.7215 76.5911C90.4406 76.5911 90.2152 76.6816 90.0453 76.8627C89.879 77.04 89.7959 77.2857 89.7959 77.5998C89.7959 77.9139 89.879 78.1615 90.0453 78.3425C90.2152 78.5199 90.4406 78.6085 90.7215 78.6085C90.8988 78.6085 91.0577 78.5679 91.1981 78.4866C91.3385 78.4016 91.4494 78.2834 91.5307 78.1319C91.6119 77.9804 91.6526 77.803 91.6526 77.5998C91.6526 77.4003 91.6119 77.2248 91.5307 77.0733C91.4494 76.9181 91.3385 76.7998 91.1981 76.7186C91.0577 76.6336 90.8988 76.5911 90.7215 76.5911Z" fill="#2A4B7A"/>
<path d="M96.9113 76.0257C97.2661 76.0257 97.5506 76.1403 97.7649 76.3694C97.9792 76.5985 98.0864 76.9255 98.0864 77.3504V79.1295H97.4545V77.4169C97.4545 77.1435 97.3843 76.9329 97.2439 76.7851C97.1035 76.6336 96.9113 76.5578 96.6675 76.5578C96.4162 76.5578 96.2148 76.6391 96.0633 76.8017C95.9118 76.9606 95.8361 77.1952 95.8361 77.5056V79.1295H95.2043V76.0756H95.8361V76.7463C95.9174 76.5172 96.0541 76.3398 96.2462 76.2142C96.4384 76.0886 96.6601 76.0257 96.9113 76.0257Z" fill="#2A4B7A"/>
<path d="M105.983 78.5808V79.1295H105.595C105.27 79.1295 105.022 79.0519 104.852 78.8968C104.686 78.7379 104.603 78.4755 104.603 78.1097V76.6132H104.165V76.0756H104.603V75.3163H105.24V76.0756H105.977V76.6132H105.24V78.1208C105.24 78.2945 105.271 78.4146 105.334 78.4811C105.401 78.5476 105.515 78.5808 105.678 78.5808H105.983Z" fill="#2A4B7A"/>
<path d="M109.368 76.6742C109.472 76.4747 109.619 76.3176 109.811 76.2031C110.004 76.0849 110.225 76.0257 110.477 76.0257V76.713H110.288C110.011 76.713 109.787 76.7814 109.617 76.9181C109.451 77.0511 109.368 77.2728 109.368 77.5832V79.1295H108.736V76.0756H109.368V76.6742Z" fill="#2A4B7A"/>
<path d="M115.927 76.0756V79.1295H115.29V78.4644C115.212 78.6898 115.077 78.8654 114.885 78.991C114.693 79.1129 114.469 79.1739 114.214 79.1739C113.86 79.1739 113.575 79.0593 113.361 78.8302C113.147 78.6012 113.039 78.2742 113.039 77.8492V76.0756H113.671V77.7827C113.671 78.0598 113.742 78.2742 113.882 78.4256C114.022 78.5734 114.214 78.6473 114.458 78.6473C114.71 78.6473 114.911 78.5661 115.062 78.4035C115.214 78.2409 115.29 78.0044 115.29 77.694V76.0756H115.927Z" fill="#2A4B7A"/>
<path d="M119.849 76.0368C120.207 76.0368 120.493 76.1292 120.708 76.3139C120.926 76.495 121.059 76.7389 121.107 77.0456H120.508C120.482 76.8793 120.41 76.7463 120.292 76.6465C120.177 76.543 120.024 76.4913 119.832 76.4913C119.673 76.4913 119.549 76.5301 119.461 76.6077C119.376 76.6816 119.333 76.7832 119.333 76.9125C119.333 77.0086 119.365 77.0862 119.427 77.1453C119.49 77.2044 119.568 77.2506 119.66 77.2839C119.756 77.3171 119.891 77.3541 120.065 77.3947C120.294 77.4465 120.479 77.5 120.619 77.5555C120.763 77.6109 120.885 77.6996 120.985 77.8215C121.088 77.9398 121.14 78.1023 121.14 78.3093C121.14 78.5642 121.042 78.7711 120.846 78.93C120.654 79.0889 120.394 79.1683 120.065 79.1683C119.684 79.1683 119.376 79.0797 119.139 78.9023C118.906 78.7249 118.766 78.4774 118.718 78.1596H119.333C119.352 78.3259 119.426 78.4607 119.555 78.5642C119.684 78.6677 119.854 78.7194 120.065 78.7194C120.216 78.7194 120.335 78.6806 120.419 78.603C120.508 78.5217 120.553 78.4201 120.553 78.2982C120.553 78.191 120.519 78.106 120.453 78.0432C120.386 77.9804 120.303 77.9324 120.203 77.8991C120.104 77.8622 119.967 77.8252 119.793 77.7883C119.571 77.7365 119.39 77.6848 119.25 77.6331C119.113 77.5813 118.995 77.4982 118.895 77.3837C118.799 77.2654 118.751 77.1065 118.751 76.907C118.751 76.6483 118.847 76.4396 119.039 76.2807C119.235 76.1181 119.505 76.0368 119.849 76.0368Z" fill="#2A4B7A"/>
<path d="M125.47 78.5808V79.1295H125.083C124.757 79.1295 124.51 79.0519 124.34 78.8968C124.174 78.7379 124.09 78.4755 124.09 78.1097V76.6132H123.653V76.0756H124.09V75.3163H124.728V76.0756H125.465V76.6132H124.728V78.1208C124.728 78.2945 124.759 78.4146 124.822 78.4811C124.889 78.5476 125.003 78.5808 125.166 78.5808H125.47Z" fill="#2A4B7A"/>
<defs>
<linearGradient id="paint0_linear_42_6819" x1="98.7205" y1="31.2301" x2="128.102" y2="25.4179" gradientUnits="userSpaceOnUse">
<stop stop-color="#CADDE5"/>
<stop offset="1" stop-color="#2A426E"/>
</linearGradient>
<linearGradient id="paint1_linear_42_6819" x1="81.5454" y1="15.3249" x2="81.5454" y2="48.0056" gradientUnits="userSpaceOnUse">
<stop stop-color="#7CBFCB"/>
<stop offset="0.425" stop-color="#466D9A"/>
<stop offset="1" stop-color="#22598F"/>
</linearGradient>
<linearGradient id="paint2_linear_42_6819" x1="47.7627" y1="0.0679732" x2="47.7627" y2="30.7708" gradientUnits="userSpaceOnUse">
<stop stop-color="#7CBFCB"/>
<stop offset="0.425" stop-color="#466D9A"/>
<stop offset="1" stop-color="#22598F"/>
</linearGradient>
</defs>
</svg>
