<svg width="170" height="32" viewBox="0 0 170 32" fill="none" xmlns="http://www.w3.org/2000/svg">
<path d="M14.2271 10.4002C13.9907 11.0019 13.8242 11.625 13.749 12.2696C13.6792 12.839 13.6738 13.4246 13.7598 13.994C13.2494 11.7163 13.4912 9.45478 14.1626 7.19862C14.7911 5.08212 15.9622 3.11604 17.5899 1.61193C18.2828 0.967309 17.0473 1.3863 17.9766 1.20366C18.7394 1.05325 18.0787 0.220616 18.8415 0.387143C24.3691 1.20366 29.4183 1.61193 37.0466 6.53251C41.6019 9.4709 45.9101 13.2849 50.5567 16.0675C51.9104 16.8786 53.3554 17.6629 54.9294 17.7489C56.5033 17.8348 58.2384 17.0076 58.7004 15.4981C58.9582 16.5241 58.5661 17.6361 57.8785 18.4365C57.1909 19.2369 56.2347 19.7687 55.2571 20.1716C54.1666 20.6174 52.9794 20.9183 51.8137 20.7571C50.6051 20.5852 49.52 19.9352 48.5101 19.253C43.4606 15.8526 38.9643 11.6572 33.8128 8.40728C31.3417 6.84945 28.6504 5.57095 25.7658 5.12509C22.8811 4.67923 19.9911 4.87262 17.5899 6.53251C16.2147 7.47258 14.8395 8.8424 14.2271 10.4002Z" fill="#042C2C"/>
<path d="M54.5478 21.7508C54.1986 21.6487 53.8495 21.5413 53.5003 21.4338C53.1189 21.3157 52.7429 21.1867 52.3615 21.0578C52.1735 20.9934 51.9855 20.9289 51.7974 20.8591C51.6202 20.7946 51.3784 20.7516 51.228 20.6388C51.5181 20.5744 51.8995 20.6442 52.2003 20.6334C52.528 20.6227 52.8611 20.5958 53.1887 20.5529C53.8441 20.4669 54.4887 20.3165 55.1011 20.0855C56.3366 19.6182 57.4647 18.807 58.1792 17.6951C58.523 17.1579 58.7754 16.5294 58.7432 15.8901C58.6895 14.7674 57.642 13.7844 56.5193 13.8005C58.942 13.9992 61.4291 14.2195 63.5993 15.3153C64.1634 15.6 64.7113 15.9492 65.0766 16.4649C65.458 16.9967 65.6191 17.6682 65.5923 18.3236C65.5386 19.6611 64.722 20.902 63.6101 21.6541C62.5035 22.4061 61.1337 22.7123 59.7907 22.7123C58.4478 22.7123 57.1263 22.433 55.8263 22.0999C55.4019 21.9925 54.9776 21.8743 54.5478 21.7508Z" fill="url(#paint0_linear_67_3209)"/>
<path d="M3.18263 15.0036C3.05371 13.7573 3.02685 12.5003 3.12354 11.2541C3.1504 10.8995 3.188 10.5396 3.23098 10.1851C5.20244 15.342 10.499 18.694 15.9461 19.5804C21.3931 20.4667 26.969 19.2312 32.1958 17.4478C37.4226 15.6643 42.456 13.3222 47.7795 11.8826C50.9865 11.0123 54.36 10.4805 57.6206 11.109C60.8813 11.7375 63.8466 13.6767 65.2218 16.7011C61.9933 14.5899 58.1793 13.6875 54.3546 14.1602C49.896 14.7135 45.8564 17.061 42.268 19.763C38.6796 22.465 35.3921 25.5699 31.621 28.0088C27.9682 30.3724 23.746 32.1075 19.3894 31.9946C16.9399 31.9302 14.5172 31.2641 12.3684 30.093C11.2887 29.5075 10.2734 28.793 9.36022 27.9712C8.47387 27.1708 7.72182 26.2092 7.02885 25.2315C5.59995 23.2225 4.53096 20.9609 3.86485 18.5812C3.53717 17.4102 3.30618 16.2122 3.18263 15.0036Z" fill="url(#paint1_linear_67_3209)"/>
<path d="M15.6236 4.95843C16.7571 3.1911 18.3203 1.69236 20.1628 0.682463C17.2352 -0.0803357 14.0766 -0.348927 11.2188 0.64486C8.96796 1.42377 7.02873 2.94937 5.51388 4.78653C4.36968 6.17783 3.44036 7.8055 3.22548 9.59431C2.98375 11.6463 3.71969 13.7306 4.94447 15.3905C5.71264 16.4326 6.66345 17.3297 7.69484 18.114C8.21053 18.5062 8.75309 18.8714 9.30101 19.2152C9.85968 19.5644 10.5043 19.7363 11.1382 19.9082C13.7865 20.628 16.6121 20.6925 19.2926 20.0855C19.5397 20.0318 19.8835 19.8652 20.1306 19.876C18.0356 19.79 16.0964 18.4954 14.9683 16.7281C13.8402 14.9608 13.4695 12.7852 13.6414 10.7009C13.8187 8.65962 14.5224 6.68279 15.6236 4.95843Z" fill="url(#paint2_linear_67_3209)"/>
<path d="M157.718 7.56889C158.161 7.98716 158.56 8.49071 159.032 8.86675C159.042 8.87415 159.053 8.87783 159.065 8.87708C159.077 8.87633 159.088 8.8712 159.096 8.86269C160.617 7.31197 162.135 5.7921 163.651 4.3031C164.085 3.87752 164.693 3.23995 165.293 3.0897C165.887 2.94107 166.17 3.23021 166.547 3.66635C166.835 3.99935 167.112 4.39731 166.789 4.8164C166.517 5.17105 166.27 5.46073 166.049 5.68544C164.325 7.44029 162.608 9.2011 160.897 10.9679C160.529 11.3472 160.382 11.4308 160.391 11.9279C160.415 13.3286 160.431 14.7296 160.441 16.1309C160.444 16.7162 160.415 17.2306 160.352 17.6741C160.271 18.2475 159.629 18.5374 159.129 18.6081C158.855 18.6465 158.593 18.6086 158.342 18.4944C157.768 18.2328 157.543 17.9786 157.547 17.285C157.559 14.9216 157.579 13.2444 157.608 12.2536C157.624 11.7021 157.556 11.3569 157.154 10.9622C155.299 9.13531 153.467 7.2857 151.659 5.41335C151.385 5.12909 151.027 4.58737 151.133 4.18858C151.346 3.39346 152.261 2.81762 153.03 3.15224C153.184 3.21938 153.425 3.41241 153.753 3.73132C155.07 5.01457 156.382 6.30594 157.718 7.56889Z" fill="#FCAD4A"/>
<path d="M96.8198 12.4398C96.8003 12.6079 96.7718 12.8077 96.7743 12.9758C96.7986 14.6624 96.7881 16.0388 96.7426 17.1049C96.7312 17.3827 96.647 17.6372 96.49 17.8684C95.8955 18.7464 95.1036 18.7001 94.2703 18.1941C93.8943 17.9658 93.848 17.5801 93.8244 17.1805C93.7481 15.8542 93.8204 14.4475 93.8122 13.2268C93.7938 10.5265 93.8014 7.82602 93.835 5.12524C93.8585 3.23448 94.7154 3.24747 96.2658 3.21255C99.4009 3.14162 102.536 3.12077 105.672 3.15001C107.062 3.163 107.962 3.18602 108.372 3.21905C109.496 3.3092 109.59 4.77275 109.139 5.52646C108.899 5.92849 108.12 5.95448 107.682 5.96828C104.541 6.06493 101.34 6.03976 98.2557 6.03894C97.9056 6.03813 97.3501 6.00077 96.8937 6.02757C96.8815 6.0283 96.8697 6.03243 96.8598 6.03947C96.8499 6.04651 96.8422 6.05618 96.8376 6.06737C96.8046 6.14804 96.7873 6.2382 96.7856 6.33783C96.7645 7.37634 96.7832 8.42433 96.8417 9.48179C96.8427 9.49909 96.8503 9.51531 96.8629 9.52711C96.8754 9.53891 96.892 9.54536 96.9091 9.54513C99.0641 9.52997 101.227 9.52537 103.398 9.53133C104.681 9.53458 104.704 10.6562 104.545 11.6471C104.521 11.803 104.436 11.8582 104.306 11.9216C103.66 12.2391 103.124 12.3204 102.339 12.3415C100.736 12.3848 99.1331 12.4021 97.5304 12.3935C97.368 12.3926 97.0926 12.352 96.8644 12.3918C96.8528 12.3939 96.8421 12.3997 96.8341 12.4083C96.826 12.417 96.821 12.428 96.8198 12.4398Z" fill="#FCAD4A"/>
<path d="M89.7028 17.4391C86.6523 14.4056 83.5627 11.4094 80.5008 8.38729C80.4239 8.31149 80.3516 8.24679 80.284 8.19318C80.2439 8.16178 80.2239 8.17153 80.2239 8.22242C80.2244 11.0721 80.223 13.8974 80.2198 16.6984C80.219 17.1686 80.1962 17.9832 79.7601 18.2829C79.1434 18.7069 78.5153 18.6855 77.8758 18.2188C77.3024 17.7997 77.4072 17.0078 77.4032 16.3889C77.3877 13.9897 77.3569 11.5857 77.4113 9.18648C77.4438 7.73105 77.4489 6.27562 77.4267 4.82019C77.4137 3.97958 78.1073 3.38425 78.8496 3.23156C79.2208 3.15521 79.8852 3.77572 80.1483 4.02831C83.0178 6.78648 85.8271 9.64049 88.621 12.4506C88.9459 12.7771 89.4551 13.3465 89.91 13.7583C89.9171 13.7648 89.9259 13.7692 89.9355 13.7708C89.945 13.7725 89.9548 13.7714 89.9637 13.7676C89.9726 13.7638 89.9802 13.7576 89.9857 13.7496C89.9911 13.7416 89.9942 13.7322 89.9944 13.7225C90.0878 10.6232 90.061 7.51582 90.1195 4.4141C90.1252 4.13552 90.1487 3.90567 90.3859 3.7213C90.8754 3.34066 91.4157 3.23914 92.007 3.41673C92.794 3.65227 92.8338 4.40922 92.8362 5.10039C92.8541 9.94019 92.7891 13.2385 92.7778 17.3075C92.777 17.5731 92.768 17.8289 92.5504 18.0173C92.2044 18.317 91.3824 18.8913 90.9284 18.5306C90.5001 18.1895 90.0916 17.8257 89.7028 17.4391Z" fill="#FCAD4A"/>
<path d="M129.817 12.6581C129.712 14.1143 129.759 15.6047 129.787 17.065C129.797 17.3753 129.692 17.6601 129.471 17.9194C129.237 18.1923 128.843 18.635 128.539 18.678C128.04 18.7487 127.203 18.0047 126.873 17.6701C125.262 16.0441 123.646 14.4157 121.99 12.8368C120.447 11.3651 118.933 9.86311 117.45 8.33079C117.396 8.27394 117.323 8.22954 117.233 8.19759C117.228 8.19589 117.224 8.19527 117.219 8.1958C117.214 8.19632 117.21 8.19797 117.206 8.2006C117.202 8.20324 117.199 8.20678 117.196 8.21092C117.194 8.21506 117.193 8.21968 117.193 8.22439C117.146 10.9046 117.131 13.584 117.146 16.2626C117.149 16.8189 117.118 17.3379 117.041 17.8358C116.964 18.3353 115.815 18.7259 115.405 18.5359C114.449 18.0924 114.262 17.6368 114.264 16.6126C114.277 11.1282 114.291 7.65262 114.305 6.18582C114.316 4.95373 114.122 3.88409 115.413 3.29282C116.189 2.9379 117.71 4.56632 118.195 5.06013C121.093 8.00673 124.023 10.9214 126.985 13.8041C127.004 13.823 127.014 13.819 127.013 13.7919C126.961 11.0313 126.981 8.79211 127.015 5.18033C127.023 4.3584 126.977 3.88896 127.681 3.4983C128.282 3.16531 128.826 3.22649 129.313 3.68185C129.795 4.1318 129.861 4.64429 129.855 5.34683C129.835 7.78338 129.822 10.2205 129.817 12.6581Z" fill="#FCAD4A"/>
<path d="M131.251 18.1845C130.711 17.6963 130.724 16.9248 130.726 16.2539C130.735 12.5709 130.75 8.88795 130.772 5.20497C130.776 4.63807 130.94 3.94609 131.441 3.60254C131.939 3.26142 132.671 3.19969 133.13 3.59685C133.614 4.01512 133.805 4.94589 133.799 5.59157C133.771 9.04822 133.757 12.5051 133.759 15.9623C133.759 17.1644 133.707 18.1739 132.439 18.6953C132.098 18.835 131.515 18.4216 131.251 18.1845Z" fill="#FCAD4A"/>
<path d="M144.051 6.25302C144.013 6.26016 143.978 6.28042 143.953 6.31033C143.927 6.34025 143.913 6.37798 143.913 6.41708C143.879 9.87617 143.893 13.3312 143.876 16.7878C143.873 17.2221 143.834 17.5367 143.756 17.7316C143.286 18.9125 142.068 18.7598 141.214 18.1483C140.987 17.9858 141.043 17.4904 141.042 17.2427C141.019 13.8794 141.022 10.5194 141.031 7.15617C141.032 6.88381 141.016 6.61146 140.984 6.33911C140.982 6.32008 140.973 6.30249 140.959 6.28963C140.945 6.27678 140.926 6.26954 140.907 6.26926C139.617 6.24544 138.329 6.2273 137.043 6.21484C136.397 6.20889 135.826 6.09492 135.329 5.87292C134.558 5.52855 134.562 3.68003 135.441 3.49241C135.782 3.41986 136.128 3.38195 136.478 3.3787C140.42 3.34513 144.362 3.33241 148.304 3.34053C148.786 3.34135 149.215 3.1984 149.597 3.60611C149.887 3.91691 150.068 4.28104 150.14 4.6985C150.189 4.99332 149.826 5.46276 149.633 5.65769C149.244 6.05241 148.513 6.17343 147.986 6.1986C146.826 6.25383 145.621 6.25898 144.371 6.21404C144.274 6.21079 144.138 6.23759 144.051 6.25302Z" fill="#FCAD4A"/>
<path d="M73.8091 18.1438C73.6011 18.0488 73.6279 17.5655 73.6255 17.373C73.5703 13.3013 73.5906 8.97478 73.6864 4.39353C73.6907 4.18236 73.7116 4.00232 73.749 3.85342C73.7523 3.84097 73.7582 3.82942 73.7663 3.8196C73.7745 3.80978 73.7846 3.80192 73.7961 3.79658C74.4994 3.46683 75.2166 3.11759 75.8013 3.54236C76.4056 3.98175 76.4917 4.60713 76.4884 5.38927C76.4652 11.2613 76.4524 15.146 76.4503 17.0433C76.4486 17.6768 75.7713 18.6319 75.0801 18.61C74.7171 18.5978 74.1737 18.3103 73.8091 18.1438Z" fill="#FCAD4A"/>
<path d="M110.703 18.0843C110.512 17.9365 110.534 17.7245 110.53 17.4931C110.473 12.7207 110.535 9.36393 110.546 5.02362C110.546 4.85036 110.53 4.69631 110.495 4.56149C110.489 4.53502 110.491 4.5073 110.5 4.4819L110.773 3.74362C110.783 3.71756 110.8 3.6946 110.822 3.67702C110.932 3.58985 111.045 3.53408 111.16 3.50971C112.022 3.32616 112.905 3.25956 113.254 4.22281C113.356 4.50491 113.409 4.77185 113.413 5.02362C113.46 7.83053 113.468 10.6377 113.436 13.4451C113.423 14.5974 113.422 15.7499 113.431 16.9026C113.437 17.6547 113.12 18.2051 112.48 18.5538C111.919 18.8592 111.088 18.3832 110.703 18.0843Z" fill="#FCAD4A"/>
<path d="M76.2718 23.3276C76.7716 23.3276 77.1868 23.4545 77.5174 23.7082C77.848 23.962 78.071 24.306 78.1863 24.7404H77.4886C77.3925 24.4944 77.2387 24.3003 77.0272 24.158C76.8196 24.0119 76.564 23.9389 76.2603 23.9389C76.0181 23.9389 75.8009 23.9985 75.6087 24.1176C75.4203 24.2368 75.2704 24.4079 75.1589 24.6309C75.0513 24.85 74.9974 25.1076 74.9974 25.4036C74.9974 25.6957 75.0513 25.9533 75.1589 26.1763C75.2704 26.3954 75.4203 26.5646 75.6087 26.6837C75.8009 26.8029 76.0181 26.8625 76.2603 26.8625C76.564 26.8625 76.8196 26.7914 77.0272 26.6491C77.2387 26.5031 77.3925 26.3089 77.4886 26.0667H78.1863C78.071 26.5011 77.848 26.8452 77.5174 27.0989C77.1868 27.3488 76.7716 27.4737 76.2718 27.4737C75.8874 27.4737 75.5472 27.3873 75.2512 27.2143C74.9551 27.0374 74.7264 26.7933 74.5649 26.4819C74.4035 26.1667 74.3228 25.8072 74.3228 25.4036C74.3228 24.9999 74.4035 24.6424 74.5649 24.331C74.7264 24.0158 74.9551 23.7697 75.2512 23.5929C75.5472 23.4161 75.8874 23.3276 76.2718 23.3276Z" fill="#2A4B7A"/>
<path d="M82.3655 24.2214C82.6539 24.2214 82.8999 24.2926 83.1036 24.4348C83.3074 24.577 83.4516 24.7654 83.5361 24.9999V24.2618H84.1935V27.4392H83.5361V26.701C83.4516 26.9355 83.3074 27.1239 83.1036 27.2662C82.8999 27.4084 82.6539 27.4795 82.3655 27.4795C82.0887 27.4795 81.8408 27.4142 81.6217 27.2835C81.4064 27.1527 81.2372 26.9644 81.1142 26.7183C80.9912 26.4723 80.9297 26.1821 80.9297 25.8476C80.9297 25.517 80.9912 25.2287 81.1142 24.9826C81.2372 24.7366 81.4064 24.5482 81.6217 24.4175C81.8408 24.2868 82.0887 24.2214 82.3655 24.2214ZM82.5674 24.7981C82.2752 24.7981 82.0407 24.8923 81.8638 25.0807C81.6909 25.2652 81.6044 25.5208 81.6044 25.8476C81.6044 26.1744 81.6909 26.4319 81.8638 26.6203C82.0407 26.8048 82.2752 26.8971 82.5674 26.8971C82.7519 26.8971 82.9172 26.8548 83.0633 26.7702C83.2094 26.6818 83.3247 26.5588 83.4093 26.4012C83.4938 26.2436 83.5361 26.059 83.5361 25.8476C83.5361 25.64 83.4938 25.4574 83.4093 25.2998C83.3247 25.1383 83.2094 25.0153 83.0633 24.9307C82.9172 24.8423 82.7519 24.7981 82.5674 24.7981Z" fill="#2A4B7A"/>
<path d="M87.8887 24.8846C87.9964 24.677 88.1501 24.5136 88.35 24.3944C88.5499 24.2714 88.7806 24.2099 89.042 24.2099V24.925H88.8459C88.5576 24.925 88.325 24.9961 88.1482 25.1383C87.9752 25.2767 87.8887 25.5074 87.8887 25.8303V27.4392H87.2313V24.2618H87.8887V24.8846Z" fill="#2A4B7A"/>
<path d="M94.7359 25.6977C94.7359 25.8053 94.7282 25.8995 94.7129 25.9802H92.2679C92.2794 26.307 92.3697 26.5492 92.5389 26.7068C92.708 26.8644 92.9176 26.9432 93.1674 26.9432C93.3866 26.9432 93.5711 26.8875 93.721 26.776C93.8748 26.6645 93.969 26.5165 94.0036 26.332H94.7071C94.6648 26.555 94.5764 26.7529 94.4418 26.9259C94.3073 27.0989 94.1324 27.2354 93.9171 27.3354C93.7018 27.4315 93.4615 27.4795 93.1963 27.4795C92.8887 27.4795 92.6158 27.4142 92.3774 27.2835C92.1429 27.1527 91.9584 26.9644 91.8239 26.7183C91.6893 26.4723 91.622 26.1821 91.622 25.8476C91.622 25.517 91.6893 25.2287 91.8239 24.9826C91.9584 24.7366 92.1429 24.5482 92.3774 24.4175C92.6158 24.2868 92.8887 24.2214 93.1963 24.2214C93.5077 24.2214 93.7787 24.2868 94.0094 24.4175C94.2439 24.5444 94.4226 24.7212 94.5456 24.948C94.6725 25.171 94.7359 25.4209 94.7359 25.6977ZM94.0728 25.6804C94.0805 25.4728 94.044 25.2998 93.9632 25.1614C93.8863 25.0191 93.7787 24.9153 93.6403 24.85C93.5057 24.7808 93.3577 24.7462 93.1963 24.7462C92.9387 24.7462 92.7234 24.825 92.5504 24.9826C92.3774 25.1402 92.2832 25.3728 92.2679 25.6804H94.0728Z" fill="#2A4B7A"/>
<path d="M101.595 24.2618L102.546 26.5972L103.429 24.2618H104.161L102.241 28.95H101.508L102.195 27.3642L100.857 24.2618H101.595Z" fill="#2A4B7A"/>
<path d="M108.295 24.2214C108.603 24.2214 108.88 24.2868 109.126 24.4175C109.372 24.5482 109.564 24.7366 109.702 24.9826C109.841 25.2287 109.91 25.517 109.91 25.8476C109.91 26.1821 109.841 26.4723 109.702 26.7183C109.564 26.9644 109.372 27.1527 109.126 27.2835C108.88 27.4142 108.603 27.4795 108.295 27.4795C107.988 27.4795 107.711 27.4142 107.465 27.2835C107.223 27.1527 107.031 26.9644 106.888 26.7183C106.75 26.4685 106.681 26.1782 106.681 25.8476C106.681 25.517 106.75 25.2287 106.888 24.9826C107.031 24.7366 107.223 24.5482 107.465 24.4175C107.711 24.2868 107.988 24.2214 108.295 24.2214ZM108.295 24.7923C108.126 24.7923 107.97 24.8308 107.828 24.9077C107.686 24.9845 107.571 25.1037 107.482 25.2652C107.398 25.4228 107.355 25.6169 107.355 25.8476C107.355 26.0821 107.398 26.2782 107.482 26.4358C107.571 26.5934 107.686 26.7106 107.828 26.7875C107.97 26.8644 108.126 26.9029 108.295 26.9029C108.464 26.9029 108.62 26.8644 108.762 26.7875C108.905 26.7106 109.018 26.5934 109.103 26.4358C109.191 26.2782 109.235 26.0821 109.235 25.8476C109.235 25.6169 109.191 25.4228 109.103 25.2652C109.018 25.1037 108.905 24.9845 108.762 24.9077C108.62 24.8308 108.464 24.7923 108.295 24.7923Z" fill="#2A4B7A"/>
<path d="M115.72 24.2618V27.4392H115.057V26.7472C114.976 26.9817 114.836 27.1643 114.636 27.295C114.436 27.4219 114.204 27.4853 113.938 27.4853C113.569 27.4853 113.273 27.3661 113.05 27.1278C112.827 26.8894 112.716 26.5492 112.716 26.1071V24.2618H113.373V26.0379C113.373 26.3262 113.446 26.5492 113.592 26.7068C113.739 26.8606 113.938 26.9375 114.192 26.9375C114.454 26.9375 114.663 26.8529 114.821 26.6837C114.978 26.5146 115.057 26.2686 115.057 25.9456V24.2618H115.72Z" fill="#2A4B7A"/>
<path d="M123.77 24.2214C124.181 24.2214 124.521 24.331 124.79 24.5501C125.06 24.7654 125.227 25.0595 125.292 25.4324H124.594C124.556 25.2325 124.462 25.0768 124.312 24.9653C124.166 24.85 123.981 24.7923 123.758 24.7923C123.504 24.7923 123.293 24.8827 123.124 25.0634C122.955 25.2402 122.87 25.5016 122.87 25.8476C122.87 26.1936 122.955 26.4569 123.124 26.6376C123.293 26.8183 123.504 26.9086 123.758 26.9086C123.981 26.9086 124.166 26.851 124.312 26.7356C124.462 26.6203 124.556 26.4627 124.594 26.2628H125.292C125.227 26.6357 125.06 26.9317 124.79 27.1508C124.521 27.37 124.181 27.4795 123.77 27.4795C123.462 27.4795 123.189 27.4142 122.951 27.2835C122.716 27.1527 122.532 26.9644 122.397 26.7183C122.263 26.4723 122.196 26.1821 122.196 25.8476C122.196 25.517 122.263 25.2287 122.397 24.9826C122.532 24.7366 122.716 24.5482 122.951 24.4175C123.189 24.2868 123.462 24.2214 123.77 24.2214Z" fill="#2A4B7A"/>
<path d="M129.451 24.2214C129.739 24.2214 129.985 24.2926 130.189 24.4348C130.392 24.577 130.537 24.7654 130.621 24.9999V24.2618H131.279V27.4392H130.621V26.701C130.537 26.9355 130.392 27.1239 130.189 27.2662C129.985 27.4084 129.739 27.4795 129.451 27.4795C129.174 27.4795 128.926 27.4142 128.707 27.2835C128.491 27.1527 128.322 26.9644 128.199 26.7183C128.076 26.4723 128.015 26.1821 128.015 25.8476C128.015 25.517 128.076 25.2287 128.199 24.9826C128.322 24.7366 128.491 24.5482 128.707 24.4175C128.926 24.2868 129.174 24.2214 129.451 24.2214ZM129.652 24.7981C129.36 24.7981 129.126 24.8923 128.949 25.0807C128.776 25.2652 128.689 25.5208 128.689 25.8476C128.689 26.1744 128.776 26.4319 128.949 26.6203C129.126 26.8048 129.36 26.8971 129.652 26.8971C129.837 26.8971 130.002 26.8548 130.148 26.7702C130.294 26.6818 130.41 26.5588 130.494 26.4012C130.579 26.2436 130.621 26.059 130.621 25.8476C130.621 25.64 130.579 25.4574 130.494 25.2998C130.41 25.1383 130.294 25.0153 130.148 24.9307C130.002 24.8423 129.837 24.7981 129.652 24.7981Z" fill="#2A4B7A"/>
<path d="M136.092 24.2099C136.461 24.2099 136.758 24.3291 136.98 24.5674C137.203 24.8058 137.315 25.146 137.315 25.5881V27.4392H136.658V25.6573C136.658 25.3728 136.585 25.1537 136.438 24.9999C136.292 24.8423 136.092 24.7635 135.839 24.7635C135.577 24.7635 135.368 24.8481 135.21 25.0172C135.053 25.1825 134.974 25.4266 134.974 25.7496V27.4392H134.316V24.2618H134.974V24.9596C135.058 24.7212 135.201 24.5367 135.4 24.406C135.6 24.2753 135.831 24.2099 136.092 24.2099Z" fill="#2A4B7A"/>
<path d="M145.53 26.8683V27.4392H145.127C144.788 27.4392 144.531 27.3584 144.354 27.197C144.181 27.0317 144.095 26.7587 144.095 26.3781V24.8212H143.639V24.2618H144.095V23.4718H144.758V24.2618H145.525V24.8212H144.758V26.3896C144.758 26.5703 144.79 26.6953 144.856 26.7645C144.925 26.8337 145.044 26.8683 145.213 26.8683H145.53Z" fill="#2A4B7A"/>
<path d="M149.053 24.8846C149.16 24.677 149.314 24.5136 149.514 24.3944C149.714 24.2714 149.944 24.2099 150.206 24.2099V24.925H150.01C149.721 24.925 149.489 24.9961 149.312 25.1383C149.139 25.2767 149.053 25.5074 149.053 25.8303V27.4392H148.395V24.2618H149.053V24.8846Z" fill="#2A4B7A"/>
<path d="M155.877 24.2618V27.4392H155.214V26.7472C155.133 26.9817 154.993 27.1643 154.793 27.295C154.593 27.4219 154.36 27.4853 154.095 27.4853C153.726 27.4853 153.43 27.3661 153.207 27.1278C152.984 26.8894 152.872 26.5492 152.872 26.1071V24.2618H153.53V26.0379C153.53 26.3262 153.603 26.5492 153.749 26.7068C153.895 26.8606 154.095 26.9375 154.349 26.9375C154.61 26.9375 154.82 26.8529 154.977 26.6837C155.135 26.5146 155.214 26.2686 155.214 25.9456V24.2618H155.877Z" fill="#2A4B7A"/>
<path d="M159.957 24.2214C160.33 24.2214 160.628 24.3176 160.851 24.5098C161.077 24.6981 161.216 24.9519 161.266 25.2709H160.643C160.616 25.098 160.541 24.9596 160.418 24.8558C160.299 24.7481 160.139 24.6943 159.939 24.6943C159.774 24.6943 159.645 24.7347 159.553 24.8154C159.465 24.8923 159.42 24.998 159.42 25.1326C159.42 25.2325 159.453 25.3132 159.518 25.3747C159.584 25.4363 159.665 25.4843 159.761 25.5189C159.861 25.5535 160.001 25.5919 160.182 25.6342C160.42 25.6881 160.612 25.7438 160.758 25.8015C160.908 25.8591 161.035 25.9514 161.139 26.0783C161.246 26.2013 161.3 26.3704 161.3 26.5857C161.3 26.851 161.198 27.0662 160.995 27.2316C160.795 27.3969 160.524 27.4795 160.182 27.4795C159.786 27.4795 159.465 27.3873 159.219 27.2027C158.976 27.0182 158.83 26.7606 158.78 26.43H159.42C159.44 26.603 159.517 26.7433 159.651 26.851C159.786 26.9586 159.962 27.0124 160.182 27.0124C160.339 27.0124 160.462 26.9721 160.551 26.8913C160.643 26.8068 160.689 26.701 160.689 26.5742C160.689 26.4627 160.654 26.3743 160.585 26.3089C160.516 26.2436 160.43 26.1936 160.326 26.159C160.222 26.1205 160.08 26.0821 159.899 26.0437C159.668 25.9898 159.48 25.936 159.334 25.8822C159.192 25.8284 159.069 25.7419 158.965 25.6227C158.865 25.4997 158.815 25.3344 158.815 25.1268C158.815 24.8577 158.915 24.6405 159.115 24.4752C159.319 24.306 159.599 24.2214 159.957 24.2214Z" fill="#2A4B7A"/>
<path d="M165.806 26.8683V27.4392H165.402C165.064 27.4392 164.806 27.3584 164.629 27.197C164.456 27.0317 164.37 26.7587 164.37 26.3781V24.8212H163.914V24.2618H164.37V23.4718H165.033V24.2618H165.8V24.8212H165.033V26.3896C165.033 26.5703 165.066 26.6953 165.131 26.7645C165.2 26.8337 165.319 26.8683 165.489 26.8683H165.806Z" fill="#2A4B7A"/>
<defs>
<linearGradient id="paint0_linear_67_3209" x1="45.6947" y1="20.8048" x2="65.3104" y2="16.9245" gradientUnits="userSpaceOnUse">
<stop stop-color="#CADDE5"/>
<stop offset="1" stop-color="#2A426E"/>
</linearGradient>
<linearGradient id="paint1_linear_67_3209" x1="34.228" y1="10.1855" x2="34.228" y2="32.0035" gradientUnits="userSpaceOnUse">
<stop stop-color="#7CBFCB"/>
<stop offset="0.425" stop-color="#466D9A"/>
<stop offset="1" stop-color="#22598F"/>
</linearGradient>
<linearGradient id="paint2_linear_67_3209" x1="11.6731" y1="-2.16423e-05" x2="11.6731" y2="20.4976" gradientUnits="userSpaceOnUse">
<stop stop-color="#7CBFCB"/>
<stop offset="0.425" stop-color="#466D9A"/>
<stop offset="1" stop-color="#22598F"/>
</linearGradient>
</defs>
</svg>
